REM DIRINDEX 1\2,1\3,1\4,1\5
REM DIRNAME folder01,folder02,folder03,folder04,folder05
TITLE ""
FILE "P1Q_t_0560-0569.mp3" MP3
  TRACK 01 AUDIO
    TITLE "3:cjc005_2583"
    INDEX 01 00:00:00
  TRACK 02 AUDIO
    TITLE "0:"
    INDEX 01 00:01:15
  TRACK 03 AUDIO
    TITLE "4:cjc005_2584"
    INDEX 01 00:01:40
  TRACK 04 AUDIO
    TITLE "0:"
    INDEX 01 00:03:08
  TRACK 05 AUDIO
    TITLE "5:cjc005_2585"
    INDEX 01 00:03:33
  TRACK 06 AUDIO
    TITLE "0:"
    INDEX 01 00:08:11
  TRACK 07 AUDIO
    TITLE "3:cjc005_2586"
    INDEX 01 00:08:68
  TRACK 08 AUDIO
    TITLE "0:"
    INDEX 01 00:10:18
  TRACK 09 AUDIO
    TITLE "4:cjc005_2587"
    INDEX 01 00:10:39
  TRACK 10 AUDIO
    TITLE "0:"
    INDEX 01 00:11:62
  TRACK 11 AUDIO
    TITLE "5:cjc005_2588"
    INDEX 01 00:12:11
  TRACK 12 AUDIO
    TITLE "0:"
    INDEX 01 00:16:24
  TRACK 13 AUDIO
    TITLE "3:cjc005_2589"
    INDEX 01 00:17:00
  TRACK 14 AUDIO
    TITLE "0:"
    INDEX 01 00:18:21
  TRACK 15 AUDIO
    TITLE "4:cjc005_2590"
    INDEX 01 00:18:41
  TRACK 16 AUDIO
    TITLE "0:"
    INDEX 01 00:19:71
  TRACK 17 AUDIO
    TITLE "5:cjc005_2591"
    INDEX 01 00:20:22
  TRACK 18 AUDIO
    TITLE "0:"
    INDEX 01 00:24:41
  TRACK 19 AUDIO
    TITLE "3:cjc005_2592"
    INDEX 01 00:25:07
  TRACK 20 AUDIO
    TITLE "0:"
    INDEX 01 00:26:44
  TRACK 21 AUDIO
    TITLE "4:cjc005_2593"
    INDEX 01 00:26:64
  TRACK 22 AUDIO
    TITLE "0:"
    INDEX 01 00:28:29
  TRACK 23 AUDIO
    TITLE "5:cjc005_2594"
    INDEX 01 00:28:53
  TRACK 24 AUDIO
    TITLE "0:"
    INDEX 01 00:32:03
  TRACK 25 AUDIO
    TITLE "3:cjc005_2595"
    INDEX 01 00:32:54
  TRACK 26 AUDIO
    TITLE "0:"
    INDEX 01 00:33:66
  TRACK 27 AUDIO
    TITLE "4:cjc005_2596"
    INDEX 01 00:34:20
  TRACK 28 AUDIO
    TITLE "0:"
    INDEX 01 00:35:57
  TRACK 29 AUDIO
    TITLE "5:cjc005_2597"
    INDEX 01 00:35:74
  TRACK 30 AUDIO
    TITLE "0:"
    INDEX 01 00:40:21
  TRACK 31 AUDIO
    TITLE "3:cjc005_2598"
    INDEX 01 00:40:70
  TRACK 32 AUDIO
    TITLE "0:"
    INDEX 01 00:42:06
  TRACK 33 AUDIO
    TITLE "4:cjc005_2599"
    INDEX 01 00:42:35
  TRACK 34 AUDIO
    TITLE "0:"
    INDEX 01 00:43:66
  TRACK 35 AUDIO
    TITLE "5:cjc005_2600"
    INDEX 01 00:44:11
  TRACK 36 AUDIO
    TITLE "0:"
    INDEX 01 00:47:27
  TRACK 37 AUDIO
    TITLE "3:cjc005_2601"
    INDEX 01 00:48:06
  TRACK 38 AUDIO
    TITLE "0:"
    INDEX 01 00:49:14
  TRACK 39 AUDIO
    TITLE "4:cjc005_2602"
    INDEX 01 00:49:37
  TRACK 40 AUDIO
    TITLE "0:"
    INDEX 01 00:50:62
  TRACK 41 AUDIO
    TITLE "5:cjc005_2603"
    INDEX 01 00:51:07
  TRACK 42 AUDIO
    TITLE "0:"
    INDEX 01 00:55:14
  TRACK 43 AUDIO
    TITLE "3:cjc005_2604"
    INDEX 01 00:55:63
  TRACK 44 AUDIO
    TITLE "0:"
    INDEX 01 00:57:05
  TRACK 45 AUDIO
    TITLE "4:cjc005_2605"
    INDEX 01 00:57:25
  TRACK 46 AUDIO
    TITLE "0:"
    INDEX 01 00:58:26
  TRACK 47 AUDIO
    TITLE "5:cjc005_2606"
    INDEX 01 00:58:46
  TRACK 48 AUDIO
    TITLE "0:"
    INDEX 01 01:03:39
  TRACK 49 AUDIO
    TITLE "3:cjc005_2607"
    INDEX 01 01:04:11
  TRACK 50 AUDIO
    TITLE "0:"
    INDEX 01 01:05:32
  TRACK 51 AUDIO
    TITLE "4:cjc005_2608"
    INDEX 01 01:05:60
  TRACK 52 AUDIO
    TITLE "0:"
    INDEX 01 01:07:06
  TRACK 53 AUDIO
    TITLE "5:cjc005_2609"
    INDEX 01 01:07:31
  TRACK 54 AUDIO
    TITLE "0:"
    INDEX 01 01:11:41
  TRACK 55 AUDIO
    TITLE "3:cjc005_2610"
    INDEX 01 01:12:19
  TRACK 56 AUDIO
    TITLE "0:"
    INDEX 01 01:13:32
  TRACK 57 AUDIO
    TITLE "4:cjc005_2611"
    INDEX 01 01:13:63
  TRACK 58 AUDIO
    TITLE "0:"
    INDEX 01 01:15:39
  TRACK 59 AUDIO
    TITLE "5:cjc005_2612"
    INDEX 01 01:15:66
  TRACK 60 AUDIO
    TITLE "0:"
    INDEX 01 01:20:24
